<svg xmlns="http://www.w3.org/2000/svg" version="1.1" xmlns:xlink="http://www.w3.org/1999/xlink" xmlns:svgjs="http://svgjs.dev/svgjs" width="1440" height="560" preserveAspectRatio="none" viewBox="0 0 1440 560"><g mask="url(&quot;#SvgjsMask1009&quot;)" fill="none"><rect width="1440" height="560" x="0" y="0" fill="#0e2a47"></rect><path d="M109.68649784884411-64.58184843063353L-47.15501380268577-4.376032907023067 13.050801720924682 152.4654787445068 169.89231337245457 92.25966322089636z" fill="rgba(28, 83, 142, 0.4)" class="triangle-float3"></path><path d="M184.07250172380216 24.067938926074575L40.06839520584728-62.45845765881454-46.45800137904183 81.54564885914034 97.54610513891305 168.07204544402947z" fill="rgba(28, 83, 142, 0.4)" class="triangle-float3"></path><path d="M144.76527485421434 84.84158614166175L13.829366258290264-55.83854376754374-38.0854887967009 103.93895097004207z" fill="rgba(28, 83, 142, 0.4)" class="triangle-float1"></path><path d="M1259.1 -5.77 a63.13 63.13 0 1 0 126.26 0 a63.13 63.13 0 1 0 -126.26 0z" fill="rgba(28, 83, 142, 0.4)" class="triangle-float2"></path><path d="M1461.2286403975495 120.34769608334747L1495.8385437675436 13.829366258290293 1318.7560973449606 15.173676115827675z" fill="rgba(28, 83, 142, 0.4)" class="triangle-float3"></path><path d="M1304.564469673726 161.4145091721526L1470.92950522231 138.0334282108617 1447.548424261019-28.33160733772212 1281.183388712435-4.950526376431213z" fill="rgba(28, 83, 142, 0.4)" class="triangle-float3"></path><path d="M-54.698867211479346 575.8886849254977L109.62992971180003 610.8178489828812 144.55909376918348 446.4890520596018-19.769703154095907 411.5598880022184z" fill="rgba(28, 83, 142, 0.4)" class="triangle-float2"></path><path d="M-43.81565480414048 492.09521336144337L-14.827921752658156 600.2789059058191 132.95375053816417 502.70546005640773z" fill="rgba(28, 83, 142, 0.4)" class="triangle-float1"></path><path d="M-119.53 492.86 a164.39 164.39 0 1 0 328.78 0 a164.39 164.39 0 1 0 -328.78 0z" fill="rgba(28, 83, 142, 0.4)" class="triangle-float1"></path><path d="M1438.8599568806305 579.5082528083285L1415.6202873038235 388.73344087270647 1279.7054322488325 487.48136325784196z" fill="rgba(28, 83, 142, 0.4)" class="triangle-float1"></path><path d="M1387.787,600.082C1417.508,597.847,1434.712,569.261,1448.447,542.809C1460.785,519.047,1467.683,492.472,1456.229,468.272C1442.94,440.193,1418.849,415.046,1387.787,414.64C1356.213,414.227,1331.78,438.99,1316.174,466.441C1300.785,493.51,1294.254,525.851,1308.961,553.297C1324.429,582.163,1355.13,602.538,1387.787,600.082" fill="rgba(28, 83, 142, 0.4)" class="triangle-float3"></path><path d="M1403.637,634.376C1443.24,634.944,1480.667,613.835,1499.75,579.128C1518.206,545.562,1513.533,504.371,1492.844,472.134C1473.754,442.39,1438.896,426.934,1403.637,429.371C1372.138,431.548,1350.18,456.334,1333.507,483.147C1315.454,512.18,1297.804,545.421,1312.187,576.436C1328.459,611.524,1364.964,633.821,1403.637,634.376" fill="rgba(28, 83, 142, 0.4)" class="triangle-float3"></path></g><defs><mask id="SvgjsMask1009"><rect width="1440" height="560" fill="#ffffff"></rect></mask><style>
                @keyframes float1 {
                    0%{transform: translate(0, 0)}
                    50%{transform: translate(-10px, 0)}
                    100%{transform: translate(0, 0)}
                }

                .triangle-float1 {
                    animation: float1 5s infinite;
                }

                @keyframes float2 {
                    0%{transform: translate(0, 0)}
                    50%{transform: translate(-5px, -5px)}
                    100%{transform: translate(0, 0)}
                }

                .triangle-float2 {
                    animation: float2 4s infinite;
                }

                @keyframes float3 {
                    0%{transform: translate(0, 0)}
                    50%{transform: translate(0, -10px)}
                    100%{transform: translate(0, 0)}
                }

                .triangle-float3 {
                    animation: float3 6s infinite;
                }
            </style></defs></svg>